<?xml version="1.0" encoding="UTF-8" standalone="no"?>
<!DOCTYPE svg PUBLIC "-//W3C//DTD SVG 1.1//EN" "http://www.w3.org/Graphics/SVG/1.1/DTD/svg11.dtd">
<svg width="100%" height="100%" viewBox="0 0 43 43" version="1.1" xmlns="http://www.w3.org/2000/svg" xmlns:xlink="http://www.w3.org/1999/xlink" xml:space="preserve" style="fill-rule:evenodd;clip-rule:evenodd;stroke-linejoin:round;stroke-miterlimit:2;">
  <g>
    <path d="M5.471,10.502l0,5.341c0,4.825 0.844,9.108 2.508,12.73c1.324,2.881 3.17,5.357 5.486,7.359c2.068,1.787 4.139,2.861 5.513,3.447c1.143,0.488 2.008,0.729 2.355,0.817c0.347,-0.087 1.212,-0.329 2.356,-0.817c1.373,-0.586 3.444,-1.66 5.512,-3.447c2.316,-2.002 4.162,-4.478 5.486,-7.359c1.664,-3.622 2.508,-7.905 2.508,-12.73l0,-5.341c-2.333,-0.077 -4.595,-0.481 -6.735,-1.205c-1.915,-0.647 -3.736,-1.55 -5.413,-2.684c-1.785,-1.205 -3.02,-2.41 -3.714,-3.168c-0.693,0.758 -1.928,1.963 -3.713,3.168c-1.677,1.134 -3.498,2.037 -5.414,2.684c-2.14,0.724 -4.402,1.128 -6.735,1.205Zm15.862,31.387l-0.166,-0.034c-0.045,-0.01 -1.142,-0.238 -2.763,-0.923c-1.482,-0.626 -3.717,-1.774 -5.953,-3.692c-2.513,-2.155 -4.515,-4.821 -5.949,-7.922c-1.781,-3.852 -2.684,-8.386 -2.684,-13.475l-0,-6.981l0.826,0c2.43,0 4.781,-0.375 6.99,-1.117c1.768,-0.594 3.451,-1.422 5.003,-2.463c2.654,-1.781 4.019,-3.59 4.033,-3.608l0.664,-0.896l0.664,0.897c0.012,0.017 1.377,1.826 4.032,3.607c1.551,1.041 3.234,1.869 5.003,2.463c2.208,0.742 4.56,1.117 6.989,1.117l0.827,0l-0,6.981c-0,5.089 -0.903,9.623 -2.684,13.475c-1.435,3.101 -3.436,5.767 -5.949,7.922c-2.236,1.918 -4.472,3.066 -5.953,3.692c-1.622,0.685 -2.718,0.913 -2.764,0.923l-0.166,0.034Z" style="fill:#000;stroke:#fff;stroke-width:1.33px;"/>
    <path d="M21.333,39.054c-0.399,-0.113 -1.077,-0.328 -1.923,-0.689c-1.301,-0.555 -3.264,-1.573 -5.224,-3.268c-2.196,-1.897 -3.947,-4.248 -5.205,-6.984c-1.597,-3.477 -2.407,-7.605 -2.407,-12.27l-0,-4.296c2.065,-0.155 4.074,-0.559 5.985,-1.206c2.009,-0.679 3.919,-1.626 5.678,-2.814c1.306,-0.883 2.336,-1.767 3.096,-2.503l0,34.03Z" style="fill:#000;stroke:#fff;stroke-width:1.33px;"/>
  </g>
</svg>